<?xml version="1.0" encoding="utf-8"?>
<!-- Generator: Adobe Illustrator 19.2.0, SVG Export Plug-In . SVG Version: 6.00 Build 0)  -->
<svg version="1.1" id="Layer_1" xmlns="http://www.w3.org/2000/svg" xmlns:xlink="http://www.w3.org/1999/xlink" x="0px" y="0px"
	 viewBox="0 0 600 375.2" style="enable-background:new 0 0 600 375.2;" xml:space="preserve">
<style type="text/css">
	.st0{fill:#FDDF03;}
	.st1{fill:#1A1A1A;}
	.st2{fill:#E94157;}
	.st3{fill:#00D49C;}
	.st4{fill:#00B1C0;}
</style>
<g>
	<polygon class="st0" points="238.4,169.3 172.4,301.6 177.2,301.6 201.5,251.9 240.4,173.2 	"/>
</g>
<path class="st1" d="M276.7,169.5c-3,0-5.3-1.9-5.3-4.3c0-2.5,2.3-4.3,5.3-4.3c3,0,5.3,1.9,5.3,4.3
	C282,167.6,279.8,169.5,276.7,169.5z"/>
<path class="st1" d="M190.2,168.9c-3,0-5.3-1.9-5.3-4.3c0-2.5,2.3-4.3,5.3-4.3c3,0,5.3,1.9,5.3,4.3
	C195.5,167.1,193.2,168.9,190.2,168.9z"/>
<g>
	<polygon class="st1" points="237,159.6 233.1,159.6 161.7,301.6 166.8,301.6 191.9,251.1 235,164.5 276.5,247.6 231,247.6 
		231,250.6 278.2,250.6 303.3,301.6 308.7,301.6 	"/>
</g>
<path class="st1" d="M218.1,123.4V53.1h4v70.3H218.1z"/>
<path class="st1" d="M255,61.7c-2,0-3.5-1.2-3.5-2.8c0-1.6,1.5-2.8,3.5-2.8c2,0,3.5,1.2,3.5,2.8C258.5,60.5,257,61.7,255,61.7z"/>
<rect x="253" y="75.1" class="st1" width="4" height="48.3"/>
<path class="st1" d="M296.9,100.9c-10-2.2-16.4-6.9-16.4-14.2c0-8.7,8.7-14,18.9-14c6.5,0,11.7,2.2,15.2,5.5l-2.7,2
	c-3.2-3.2-7.2-4.9-12.7-4.9c-8.7,0-14.7,4.5-14.7,10.8c0,6.7,5,10.1,14.7,12.2c10.7,2.2,15.9,6.5,15.9,13.4c0,7.5-9,12.2-18.9,12.2
	c-6.5,0-11.7-1.2-17.7-4.9l2.2-2.4c6.2,3.4,10.2,4.7,15.7,4.7c8.5,0,14.7-3.7,14.7-9.3S306.6,103.2,296.9,100.9z"/>
<path class="st1" d="M382.7,95.3c0,7.2-0.2,28.6-0.2,28.6l-3.3,0c0,0,0-8.4,0.4-11.5c-6,7.9-12.7,11.4-23.2,11.4
	c-14,0-25.6-9.5-25.6-24.7c0-17.2,12.7-26.5,27.1-26.4C374.5,72.9,382.8,84.3,382.7,95.3z M379.6,95.9c0-11.2-9.5-20.5-21.9-20.5
	c-13.4,0-23.3,9.1-23.3,23.1c0,13.4,10.1,22.7,23.3,22.7c12.3,0,21.9-9.7,21.9-20.5V95.9z"/>
<g>
	<path class="st1" d="M104.2,247.5c20.6-4.8,40.6-20.9,40.6-42.2c0-27.1-24.8-45.7-55.8-45.7H48v142h57.9c18.3,0,33-11.3,33-26.9
		C138.9,262.1,129.4,247.3,104.2,247.5z M105.9,297.6H53v-46.8v-3.4v-84.8h35.9c28.2,0,51,18,51,42.6c0,21.1-23.9,38.2-50.9,41.4
		v4.2l13.5,0.1c20,0,31.7,10.7,31.7,23.8C134.2,288.3,121.4,297.6,105.9,297.6z"/>
</g>
<rect x="58" y="162.6" class="st2" width="5" height="135"/>
<rect x="345.4" y="163.7" class="st3" width="5" height="135"/>
<g>
	<rect x="371" y="247.6" class="st1" width="27" height="3"/>
	<g>
		<polygon class="st1" points="340,297.6 340,250.8 340,247.4 340,163.6 413,163.6 413,160.6 335,160.6 335,301.6 416,301.6 
			416,297.6 		"/>
	</g>
</g>
<rect x="453.9" y="163.5" class="st4" width="5" height="138"/>
<g>
	<path class="st1" d="M552.4,205.3c0-25.3-24.8-45.7-55.8-45.7H444v142h5.1l-0.2-138h47.6c28.2,0,51.1,17.8,51.1,42.1
		c0,24.1-22.8,41.9-51.1,41.9h-9.3l53.9,54h6.5L496.5,251C527.5,251,552.4,230.3,552.4,205.3z"/>
</g>
</svg>
