<?xml version="1.0" encoding="utf-8"?>
<!-- Generator: Adobe Illustrator 19.2.1, SVG Export Plug-In . SVG Version: 6.00 Build 0)  -->
<svg version="1.1" id="Layer_1" xmlns="http://www.w3.org/2000/svg" xmlns:xlink="http://www.w3.org/1999/xlink" x="0px" y="0px"
	 viewBox="0 0 200 200" style="enable-background:new 0 0 200 200;" xml:space="preserve">
<path id="White_2_" d="M180.5,8.2H18.9c-5.5,0-10,4.5-10,10v161.7c0,5.5,4.5,10,10,10h87v-70.4H82.2V92.2h23.7V71.9
	c0-23.5,14.3-36.3,35.3-36.3c10,0,18.7,0.7,21.2,1.1v24.5l-14.5,0c-11.4,0-13.6,5.4-13.6,13.4v17.5h27.2l-3.5,27.4h-23.6V190h46.3
	c5.5,0,10-4.5,10-10V18.3C190.6,12.7,186.1,8.2,180.5,8.2z"/>
</svg>
