<?xml version="1.0" encoding="utf-8"?>
<!-- Generator: Adobe Illustrator 19.2.1, SVG Export Plug-In . SVG Version: 6.00 Build 0)  -->
<svg version="1.1" id="Layer_1" xmlns="http://www.w3.org/2000/svg" xmlns:xlink="http://www.w3.org/1999/xlink" x="0px" y="0px"
	 viewBox="0 0 200 200" style="enable-background:new 0 0 200 200;" xml:space="preserve">
<path d="M197.3,37.7c-7.1,3.2-14.8,5.3-22.8,6.3c8.2-4.9,14.5-12.7,17.5-22c-7.7,4.6-16.2,7.9-25.2,9.6c-7.3-7.7-17.6-12.6-29-12.6
	c-22,0-39.8,17.8-39.8,39.8c0,3.1,0.4,6.1,1,9.1c-33-1.7-62.3-17.5-81.9-41.5c-3.4,5.9-5.4,12.7-5.4,20c0,13.8,7,26,17.7,33.1
	c-6.5-0.2-12.6-2-18-5c0,0.2,0,0.3,0,0.5c0,19.3,13.7,35.3,31.9,39c-3.3,0.9-6.8,1.4-10.5,1.4c-2.6,0-5.1-0.2-7.5-0.7
	c5.1,15.8,19.7,27.3,37.1,27.6c-13.6,10.7-30.7,17-49.4,17c-3.2,0-6.4-0.2-9.5-0.6c17.6,11.3,38.5,17.9,60.9,17.9
	c73.1,0,113.1-60.6,113.1-113.1c0-1.7,0-3.4-0.1-5.1C185.3,52.7,192,45.7,197.3,37.7z"/>
</svg>
